<?xml version="1.0" encoding="UTF-8"?>
<svg id="Layer_2" data-name="Layer 2" xmlns="http://www.w3.org/2000/svg" viewBox="0 0 257.13 252.9">
    <path class="cls-1" d="M167.47,25.09h0c3.47,7.3,11.56,11.19,19.42,9.35h0c35.34-8.26,64.43,28.22,48.52,60.84h0c-3.54,7.26-1.55,16.01,4.8,21.02h0c28.5,22.48,18.11,67.97-17.31,75.86h0c-7.89,1.76-13.48,8.77-13.44,16.86h0c.19,36.3-41.85,56.54-70.11,33.76h0c-6.29-5.07-15.27-5.07-21.56,0h0c-28.26,22.78-70.3,2.53-70.11-33.76h0c.04-8.08-5.55-15.1-13.44-16.86h0c-35.43-7.89-45.81-53.38-17.31-75.86h0c6.34-5.01,8.34-13.76,4.8-21.02h0c-15.92-32.62,13.17-69.1,48.52-60.84h0c7.87,1.84,15.96-2.06,19.42-9.35h0c15.58-32.78,62.23-32.78,77.81,0Z" fill="black" stroke="#3C3C3C" stroke-width="2.5"/>
</svg>
