<?xml version="1.0" encoding="UTF-8"?>
<svg id="Layer_1" data-name="Layer 1" xmlns="http://www.w3.org/2000/svg" viewBox="0 0 93.51 92.65">
  <defs>
    <style>
      .cls-1 {
        fill: #231f20;
        stroke: #231f20;
        stroke-miterlimit: 10;
      }
    </style>
  </defs>
  <path class="cls-1" d="M49.77,1.95h0c1.84-2.3,5.47-1.78,6.59.95h0c.94,2.29,3.76,3.12,5.79,1.7h0c2.41-1.69,5.75-.16,6.06,2.77h0c.26,2.46,2.73,4.05,5.07,3.26h0c2.79-.94,5.56,1.46,5.03,4.36h0c-.45,2.43,1.48,4.65,3.95,4.56h0c2.94-.11,4.93,2.97,3.6,5.6h0c-1.11,2.21.11,4.88,2.51,5.49h0c2.85.72,3.89,4.24,1.88,6.39h0c-1.69,1.81-1.27,4.71.86,5.97h0c2.54,1.49,2.54,5.16,0,6.66h0c-2.13,1.26-2.55,4.16-.86,5.97h0c2.01,2.15.98,5.67-1.88,6.39h0c-2.4.6-3.62,3.28-2.51,5.49h0c1.33,2.63-.66,5.72-3.6,5.6h0c-2.47-.1-4.4,2.13-3.95,4.56h0c.53,2.9-2.24,5.3-5.03,4.36h0c-2.35-.79-4.82.8-5.07,3.26h0c-.31,2.93-3.64,4.45-6.06,2.77h0c-2.03-1.42-4.85-.59-5.79,1.7h0c-1.12,2.72-4.75,3.25-6.59.95h0c-1.55-1.93-4.49-1.93-6.03,0h0c-1.84,2.3-5.47,1.78-6.59-.95h0c-.94-2.29-3.76-3.12-5.79-1.7h0c-2.41,1.69-5.75.16-6.06-2.77h0c-.26-2.46-2.73-4.05-5.07-3.26h0c-2.79.94-5.56-1.46-5.03-4.36h0c.45-2.43-1.48-4.65-3.95-4.56h0c-2.94.11-4.93-2.97-3.6-5.6h0c1.11-2.21-.11-4.88-2.51-5.49h0c-2.85-.72-3.89-4.24-1.88-6.39h0c1.69-1.81,1.27-4.71-.86-5.97h0c-2.54-1.49-2.54-5.16,0-6.66h0c2.13-1.26,2.55-4.16.86-5.97h0c-2.01-2.15-.98-5.67,1.88-6.39h0c2.4-.6,3.62-3.28,2.51-5.49h0c-1.33-2.63.66-5.72,3.6-5.6h0c2.47.1,4.4-2.13,3.95-4.56h0c-.53-2.9,2.24-5.3,5.03-4.36h0c2.35.79,4.82-.8,5.07-3.26h0c.31-2.93,3.64-4.45,6.06-2.77h0c2.03,1.42,4.85.59,5.79-1.7h0c1.12-2.72,4.75-3.25,6.59-.95h0c1.55,1.93,4.49,1.93,6.03,0Z"/>
</svg>