<?xml version="1.0" encoding="UTF-8"?>
<svg id="Layer_1" data-name="Layer 1" xmlns="http://www.w3.org/2000/svg" viewBox="0 0 100.98 100.98">
  <defs>
    <style>
      .cls-1 {
        fill: #231f20;
        stroke: #231f20;
        stroke-miterlimit: 10;
      }
    </style>
  </defs>
  <path class="cls-1" d="M58.31,1.1h0s0,0,0,0c1.99,6.29,9.57,8.75,14.88,4.83h0s0,0,0,0c-.05,6.59,6.4,11.28,12.66,9.19h0s0,0,0,0c-2.08,6.26,2.6,12.7,9.19,12.66h0s0,0,0,0c-3.91,5.31-1.45,12.89,4.83,14.88h0s0,0,0,0c-5.36,3.84-5.36,11.81,0,15.64h0s0,0,0,0c-6.29,1.99-8.75,9.57-4.83,14.88h0s0,0,0,0c-6.59-.05-11.28,6.4-9.19,12.66h0s0,0,0,0c-6.26-2.08-12.7,2.6-12.66,9.19h0s0,0,0,0c-5.31-3.91-12.89-1.45-14.88,4.83h0s0,0,0,0c-3.84-5.36-11.81-5.36-15.64,0h0s0,0,0,0c-1.99-6.29-9.57-8.75-14.88-4.83h0s0,0,0,0c.05-6.59-6.4-11.28-12.66-9.19h0s0,0,0,0c2.08-6.26-2.6-12.7-9.19-12.66h0s0,0,0,0c3.91-5.31,1.45-12.89-4.83-14.88h0s0,0,0,0c5.36-3.84,5.36-11.81,0-15.64h0s0,0,0,0c6.29-1.99,8.75-9.57,4.83-14.88h0s0,0,0,0c6.59.05,11.28-6.4,9.19-12.66h0s0,0,0,0c6.26,2.08,12.7-2.6,12.66-9.19h0s0,0,0,0c5.31,3.91,12.89,1.45,14.88-4.83h0s0,0,0,0c3.84,5.36,11.81,5.36,15.64,0Z"/>
</svg>