<?xml version="1.0" encoding="UTF-8"?>
<svg id="Layer_1" data-name="Layer 1" xmlns="http://www.w3.org/2000/svg" viewBox="0 0 85.47 84.39">
  <defs>
    <style>
      .cls-1 {
        fill: #231f20;
      }
    </style>
  </defs>
  <path fill="#000000" d="M37.94,83.83h0c-9.69,2.25-19.63-2.54-23.91-11.51h0c-1.39-2.93-3.44-5.49-5.98-7.5h0C.24,58.65-2.22,47.88,2.14,38.94h0c1.42-2.91,2.15-6.11,2.14-9.36h0c-.04-9.94,6.84-18.58,16.55-20.75h0c3.16-.71,6.12-2.13,8.65-4.16h0c7.75-6.23,18.79-6.23,26.54,0h0c2.53,2.03,5.48,3.46,8.65,4.16h0c9.7,2.17,16.59,10.8,16.55,20.75h0c-.01,3.24.72,6.44,2.14,9.36h0c4.35,8.94,1.9,19.71-5.91,25.87h0c-2.54,2.01-4.59,4.58-5.98,7.5h0c-4.28,8.98-14.23,13.77-23.91,11.51h0c-3.16-.73-6.44-.73-9.6,0Z"/>
</svg>
