<svg width="567" height="519" viewBox="0 0 567 519" fill="none" xmlns="http://www.w3.org/2000/svg">
<path d="M482.535 405.7L483.755 403.81L460.135 388.55C459.735 389.18 459.325 389.82 458.915 390.45L482.535 405.7Z" fill="#999999"/>
<path d="M492.235 389.5L493.305 387.52L468.555 374.13C468.205 374.79 467.875 375.47 467.515 376.13L492.235 389.51V389.5Z" fill="#999999"/>
<path d="M459.525 435.6L461.025 433.92L440.115 415.26C439.615 415.83 439.145 416.4 438.635 416.96L459.515 435.6H459.525Z" fill="#999999"/>
<path d="M471.615 421.1L472.985 419.31L450.695 402.33C450.245 402.93 449.755 403.51 449.305 404.1L471.615 421.1Z" fill="#999999"/>
<path d="M454.825 458.56L457.065 456.42L428.945 427.11C428.205 427.83 427.455 428.53 426.705 429.25L454.825 458.57V458.56Z" fill="#999999"/>
<path d="M513.415 378.74L514.705 375.82L476.015 358.63C475.595 359.61 475.135 360.57 474.695 361.54L513.405 378.74H513.415Z" fill="#999999"/>
<path d="M507.775 354.93L508.525 352.81L481.895 343.4C481.655 344.11 481.425 344.83 481.175 345.53L507.775 354.93Z" fill="#999999"/>
<path d="M513.505 336.7L514.085 334.52L486.815 327.25C486.625 327.98 486.395 328.69 486.195 329.42L513.505 336.7Z" fill="#999999"/>
<path d="M517.805 317.93L518.215 315.71L490.365 310.63C490.235 311.37 490.105 312.11 489.965 312.85L517.795 317.93H517.805Z" fill="#999999"/>
<path d="M520.615 298.71L520.835 296.47L492.695 293.65C492.625 294.4 492.565 295.15 492.485 295.89L520.615 298.71Z" fill="#999999"/>
<path d="M534.205 279.75L534.265 276.68L493.635 275.93C493.625 276.96 493.585 277.98 493.555 279L534.205 279.75Z" fill="#999999"/>
<path d="M521.505 259.21L521.365 256.96L493.195 258.75C493.245 259.5 493.325 260.24 493.365 261L521.515 259.22L521.505 259.21Z" fill="#999999"/>
<path d="M519.495 239.1L519.165 236.87L491.325 240.95C491.435 241.69 491.505 242.44 491.605 243.18L519.485 239.1H519.495Z" fill="#999999"/>
<path d="M566.712 219.37L565.273 217.17L487.945 223.51C488.425 224.24 488.904 224.97 489.384 225.7L566.712 219.36V219.37Z" fill="#999999"/>
<path d="M510.725 200.28L510.035 198.14L483.295 206.67C483.525 207.39 483.795 208.09 484.015 208.8L510.725 200.28Z" fill="#999999"/>
<path d="M515.985 177.48L514.815 174.62L477.205 190.07C477.605 191.02 477.955 191.99 478.335 192.95L515.985 177.48Z" fill="#999999"/>
<path d="M496.145 164.29L495.125 162.28L470.175 174.96C470.515 175.63 470.865 176.29 471.205 176.97L496.155 164.29H496.145Z" fill="#999999"/>
<path d="M486.865 147.51L485.695 145.59L461.915 160.16C462.305 160.8 462.695 161.44 463.075 162.09L486.865 147.51Z" fill="#999999"/>
<path d="M476.345 131.62L475.015 129.8L452.505 146.16C452.945 146.77 453.375 147.38 453.815 148L476.345 131.62Z" fill="#999999"/>
<path d="M464.675 116.68L463.215 114.97L442.115 132.98C442.605 133.55 443.105 134.11 443.585 134.68L464.665 116.68H464.675Z" fill="#999999"/>
<path d="M462.085 93.23L459.845 90.98L430.485 120.29C431.235 121.04 431.945 121.83 432.675 122.59L462.095 93.23H462.085Z" fill="#999999"/>
<path d="M438.135 89.85L436.425 88.38L418.505 109.27C419.075 109.76 419.645 110.25 420.205 110.74L438.135 89.84V89.85Z" fill="#999999"/>
<path d="M423.425 78.07L421.605 76.74L405.445 98.84C406.055 99.28 406.675 99.71 407.275 100.16L423.435 78.07H423.425Z" fill="#999999"/>
<path d="M407.835 67.46L405.915 66.27L391.565 89.46C392.205 89.86 392.825 90.27 393.465 90.68L407.835 67.46Z" fill="#999999"/>
<path d="M391.445 58.08L389.445 57.05L376.975 81.19C377.645 81.54 378.315 81.87 378.985 82.22L391.445 58.08Z" fill="#999999"/>
<path d="M379.475 38.76L376.645 37.57L361.375 73.83C362.315 74.23 363.245 74.66 364.185 75.07L379.475 38.76Z" fill="#999999"/>
<path d="M356.535 43.2L354.395 42.49L345.925 68.07C346.635 68.31 347.355 68.55 348.065 68.79L356.545 43.19L356.535 43.2Z" fill="#999999"/>
<path d="M338.165 37.82L335.975 37.28L329.585 63.33C330.315 63.51 331.055 63.65 331.785 63.84L338.165 37.81V37.82Z" fill="#999999"/>
<path d="M319.275 1.34965L317.055 0.546089L312.795 59.4072C313.535 59.675 314.275 60.0098 315.015 60.3L319.285 1.34965H319.275Z" fill="#999999"/>
<path d="M299.955 31.47L297.715 31.29L295.605 57.82C296.355 57.88 297.105 57.92 297.855 57.99L299.965 31.47H299.955Z" fill="#999999"/>
<path d="M280.735 57.1L280.665 18.17H277.585L277.655 57.03C278.755 57.03 279.745 57.09 280.735 57.1Z" fill="#999999"/>
<path d="M260.295 31.38L258.055 31.57L260.255 57.8C261.005 57.74 261.755 57.68 262.505 57.63L260.305 31.38H260.295Z" fill="#999999"/>
<path d="M240.215 0.546089L237.995 1.38625L242.315 59.97C243.055 59.6975 243.785 59.3342 244.535 59.0617L240.215 0.546089Z" fill="#999999"/>
<path d="M220.645 37.82L218.465 38.37L224.845 63.59C225.575 63.41 226.315 63.26 227.045 63.08L220.655 37.82H220.645Z" fill="#999999"/>
<path d="M201.725 43.33L199.595 44.06L207.985 68.62C208.695 68.38 209.405 68.13 210.115 67.9L201.725 43.34V43.33Z" fill="#999999"/>
<path d="M178.795 38.3L175.945 39.54L191.385 75.05C192.335 74.63 193.275 74.2 194.225 73.79L178.795 38.3Z" fill="#999999"/>
<path d="M166.125 58.59L164.135 59.65L176.255 82.36C176.915 82.01 177.595 81.68 178.265 81.33L166.135 58.59H166.125Z" fill="#999999"/>
<path d="M149.565 68.19L147.665 69.4L161.515 91.02C162.145 90.62 162.775 90.2 163.415 89.8L149.565 68.18V68.19Z" fill="#999999"/>
<path d="M133.905 79L132.105 80.36L147.535 100.73C148.135 100.28 148.735 99.82 149.335 99.37L133.905 79Z" fill="#999999"/>
<path d="M119.205 90.96L117.515 92.46L134.435 111.51C134.995 111.01 135.575 110.53 136.135 110.03L119.195 90.96H119.205Z" fill="#999999"/>
<path d="M95.3049 93.45L93.0649 95.77L121.925 123.58C122.675 122.8 123.395 122.01 124.155 121.24L95.3149 93.45H95.3049Z" fill="#999999"/>
<path d="M92.905 117.99L91.475 119.73L110.975 135.81C111.455 135.23 111.955 134.67 112.445 134.1L92.905 117.99Z" fill="#999999"/>
<path d="M81.415 132.93L80.1249 134.78L100.795 149.3C101.225 148.68 101.665 148.07 102.105 147.46L81.425 132.94L81.415 132.93Z" fill="#999999"/>
<path d="M71.105 148.73L69.955 150.67L91.6349 163.51C92.0149 162.86 92.3749 162.2 92.7549 161.56L71.105 148.73Z" fill="#999999"/>
<path d="M62.035 165.31L61.045 167.33L83.595 178.42C83.925 177.74 84.2849 177.09 84.6249 176.42L62.045 165.31H62.035Z" fill="#999999"/>
<path d="M40.645 176.66L39.4449 179.67L76.595 194.46C76.985 193.45 77.375 192.45 77.785 191.45L40.645 176.66Z" fill="#999999"/>
<path d="M47.825 200.54L47.155 202.69L71.1349 210.11C71.3549 209.39 71.565 208.67 71.795 207.95L47.825 200.53V200.54Z" fill="#999999"/>
<path d="M1.72299 219.05L0.41272 221.25L65.9812 226.75C66.409 226.02 66.8904 225.29 67.345 224.56L1.72299 219.06V219.05Z" fill="#999999"/>
<path d="M39.2449 238.05L38.925 240.28L63.825 243.79C63.925 243.05 64.005 242.3 64.105 241.56L39.235 238.05H39.2449Z" fill="#999999"/>
<path d="M37.205 257.47L37.075 259.72L62.145 261.21C62.185 260.46 62.2649 259.72 62.3149 258.96L37.205 257.47Z" fill="#999999"/>
<path d="M22.775 276.94L22.845 280.12L61.975 279.25C61.945 278.19 61.905 277.13 61.895 276.07L22.775 276.94Z" fill="#999999"/>
<path d="M37.9349 297.26L38.175 299.5L63.175 296.88C63.095 296.13 62.985 295.39 62.915 294.64L37.9449 297.26H37.9349Z" fill="#999999"/>
<path d="M40.765 317.27L41.1849 319.48L65.905 314.82C65.765 314.09 65.6449 313.34 65.5049 312.6L40.765 317.26V317.27Z" fill="#999999"/>
<path d="M45.165 336.69L45.765 338.86L70.105 332.17C69.895 331.45 69.685 330.73 69.485 330L45.165 336.68V336.69Z" fill="#999999"/>
<path d="M51.045 355.43L51.8149 357.55L75.575 348.89C75.315 348.19 75.025 347.49 74.765 346.79L51.035 355.44L51.045 355.43Z" fill="#999999"/>
<path d="M44.9449 379.05L46.285 381.97L82.545 365.33C82.085 364.36 81.665 363.37 81.215 362.4L44.9349 379.04L44.9449 379.05Z" fill="#999999"/>
<path d="M66.985 390.63L68.085 392.6L90.325 380.16C89.955 379.51 89.565 378.86 89.205 378.21L66.985 390.64V390.63Z" fill="#999999"/>
<path d="M76.895 406.97L78.145 408.84L99.3749 394.65C98.9549 394.03 98.535 393.41 98.115 392.79L76.895 406.97Z" fill="#999999"/>
<path d="M87.9949 422.4L89.3849 424.17L109.515 408.29C109.045 407.71 108.585 407.11 108.125 406.52L87.985 422.4H87.9949Z" fill="#999999"/>
<path d="M100.215 436.85L101.745 438.5L120.655 421.04C120.145 420.49 119.615 419.96 119.105 419.41L100.225 436.85H100.215Z" fill="#999999"/>
<path d="M103.275 460.59L105.635 462.78L133.025 433.23C132.225 432.51 131.465 431.76 130.675 431.03L103.265 460.59H103.275Z" fill="#999999"/>
</svg>
